<?xml version="1.0" encoding="utf-8"?>

<svg version="1.0" id="katman_1" xmlns="http://www.w3.org/2000/svg" xmlns:xlink="http://www.w3.org/1999/xlink" x="0px" y="0px"
	 viewBox="0 0 628.41 623.03" style="enable-background:new 0 0 628.41 623.03;" xml:space="preserve">
<style type="text/css">
	.st0{fill:#121615;}
</style>
<path class="st0" d="M318.49,2.78c21.29,15.29,36.7,34.27,46.23,56.94c4.86,11.57,8.84,24.07,11.94,37.49
	c8.65,37.51,5.93,73.21-8.18,107.11c-6.53,15.7-16.64,29.48-21.39,46.08c-0.13,0.44-0.39,0.55-0.79,0.32
	c-6.63-3.76-13.52-6.03-20.65-6.81c-0.32-0.03-0.56-0.33-0.53-0.66c0,0,0-0.01,0-0.01c0.73-5.65,1.49-11.13,2.27-16.42
	c7.36-49.74-18.3-95.66-50.66-131.25c-5.8-6.39-11.95-12.89-18.45-19.52c-0.63-0.64-1.11-1.39-1.46-2.24
	c-0.11-0.27-0.12-0.54-0.03-0.81c4-11.66,9.47-22.81,16.4-33.46c10.42-15.98,24.44-28.57,40.42-39.4c0.27-0.18,0.54-0.19,0.81-0.03
	C315.8,0.93,317.15,1.82,318.49,2.78z"/>
<path class="st0" d="M256.31,205.31c-12.1-15.8-26.06-29.38-41.89-40.74c-18.67-13.4-40.49-23.27-65.44-29.62
	c-0.31-0.07-0.51-0.26-0.61-0.56c-8.04-24.25-8.68-47.96-2.41-72.08c1.55-5.94,3.22-11.74,5.01-17.4c0.09-0.3,0.3-0.44,0.61-0.42
	c13.31,0.75,25.66,2.87,37.05,6.35c13.5,4.14,25.59,11.54,36.28,22.19c16.09,16.04,31.19,33.64,45.3,52.79
	c19.09,25.93,31.47,57.27,30.98,89.91c-0.15,9.68-0.33,19.05-0.55,28.1c0,0.18-0.13,0.33-0.3,0.36c-6.47,1.14-12.74,3.3-18.79,6.49
	c-0.41,0.21-0.64,0.09-0.68-0.37c-0.11-1.06-0.29-2.15-0.66-3.16C274.64,231.9,266.2,218.21,256.31,205.31z"/>
<path class="st0" d="M399.47,175.81c5.21-26.06,5.09-52.93-0.38-80.62c-1.43-7.21-3.39-14.24-5.9-21.09
	c-0.21-0.58-0.01-1.22,0.5-1.57c7.2-4.9,14.26-9.16,21.19-12.78c17.45-9.12,36.33-12.62,56.19-14.67c2.19-0.23,4.03-0.28,5.52-0.16
	c0.35,0.03,0.58,0.21,0.69,0.55c1.57,5.03,3.07,10.09,4.52,15.19c4.9,17.31,5.99,35.04,3.27,53.21c-1.03,6.88-2.46,13.91-4.28,21.09
	c-0.09,0.33-0.3,0.53-0.63,0.6c-29.72,6.29-57.8,20.32-80.23,41.21c-0.4,0.37-0.58,0.29-0.55-0.26
	C399.39,176.29,399.42,176.05,399.47,175.81z"/>
<path class="st0" d="M587.63,159.2c-4.03,22.07-10.5,43.46-24.57,60.78c-7.97,9.82-17.79,18.95-29.46,27.4
	c-15.34,11.09-30.22,20.59-46.44,28.43c-5.03,2.43-10.02,4.96-14.98,7.61c-1.92,1.02-2.2,0.69-0.83-1
	c6.48-8.04,12.88-17.37,17.56-26.95c17.01-34.87,23.81-73.93,16.94-111.8c-0.07-0.36,0.09-0.55,0.46-0.57
	c28.33-1.63,55.31,3.49,80.93,15.35C587.57,158.6,587.7,158.85,587.63,159.2z"/>
<path class="st0" d="M184.38,171.14c32.31,18.48,59.81,51.33,71.85,86.71c1.3,3.84,2.37,8.08,2.79,12.08
	c0.13,1.25-0.29,1.47-1.26,0.68c-33.62-27.42-77.91-41.19-121.08-42.26c-19.92-0.49-39.18,1.86-57.78,7.04
	c-0.32,0.09-0.6,0.01-0.85-0.22c-14.72-14.26-25.43-30.72-31.44-49.92c-2.64-8.44-4.68-17.16-6.12-26.16
	c-0.07-0.47,0.11-0.8,0.56-0.98c4.68-1.86,9.57-3.69,14.68-5.49c16.28-5.74,33.48-7.81,51.59-6.22c20.83,1.83,40.54,7,59.13,15.53
	C172.68,164.79,178.66,167.86,184.38,171.14z"/>
<path class="st0" d="M417.59,190.83c19.64-17.11,41.71-28.54,67.15-33.35c0.39-0.07,0.6,0.09,0.64,0.49
	c0.49,5.5,0.58,10.99,0.27,16.47c-1.51,26.68-7.83,50.99-18.94,72.94c-3.83,7.56-9.04,15.07-15.63,22.53
	c-17.7,20-43.19,28.6-69.29,29.55c-0.35,0.01-0.55-0.15-0.62-0.5c-1.94-10.51-5.9-20.08-11.87-28.73c-0.24-0.35-0.33-0.79-0.25-1.21
	c3.53-17.63,10.38-33.55,20.57-47.77C397.34,210.49,406.66,200.35,417.59,190.83z"/>
<path class="st0" d="M164.04,314.56c-24.63,7.86-48.54,19.52-71.75,34.99c-6.93,4.62-13.64,9.31-20.13,14.07
	c-0.55,0.41-1.28,0.5-1.93,0.25c-3.96-1.58-7.87-3.13-11.74-4.65c-14.47-5.7-27.82-13.39-38.97-24.19
	c-7.27-7.05-13.72-14.55-19.35-22.51c-0.22-0.31-0.23-0.73-0.02-1.06c11.98-18.3,28.13-34.52,47.66-43.75
	c30.71-14.52,62.94-19.48,96.71-14.87c37.84,5.16,72.04,19.05,102.59,41.67c0.33,0.25,0.42,0.56,0.25,0.94
	c-0.52,1.19-0.82,2.36-0.9,3.49c-0.03,0.47-0.29,0.71-0.77,0.72c-14.37,0.27-29.48,2.13-45.35,5.57
	C185.69,308.41,173.59,311.52,164.04,314.56z"/>
<path class="st0" d="M380.66,331c-0.49-0.36-0.66-0.84-0.49-1.43c0.51-1.78,0.76-3.56,0.75-5.35c0-0.49,0.25-0.74,0.74-0.75
	c12.32-0.14,25.25-1.54,38.8-4.2c21.31-4.2,42.49-9.61,62.23-17.85c16.77-7.01,33.47-15.97,50.1-26.89
	c7.69-5.05,15.52-10.39,23.5-16.01c0.25-0.18,0.51-0.22,0.8-0.12c5.17,1.79,10.25,3.67,15.23,5.63
	c20.21,7.95,37.21,21.48,51.01,40.6c1.89,2.63,3.55,5.12,4.96,7.49c0.19,0.31,0.15,0.58-0.12,0.83c-0.53,0.47-1.01,0.99-1.43,1.56
	c-4.55,6.17-9.72,12.16-15.51,17.99c-13.57,13.64-30.9,22.68-49.46,28.8c-25.8,8.51-51.6,11.37-77.4,8.6
	c-14.63-1.57-29.13-4.48-43.49-8.74C419.44,354.81,399.37,344.76,380.66,331z"/>
<ellipse transform="matrix(0.0698 -0.9976 0.9976 0.0698 -18.177 602.8734)" class="st0" cx="314.16" cy="311.18" rx="44.88" ry="44.34"/>
<path class="st0" d="M207.6,431.57c-19.03,15.47-40.19,25.91-63.5,31.33c-0.29,0.07-0.44-0.04-0.46-0.33
	c-0.64-8.52-0.55-16.91,0.28-25.16c1.75-17.39,5.65-35.38,12.51-51.88c11.23-27,33.02-49.63,61.63-57.27
	c9.71-2.59,19.15-4.11,28.3-4.55c0.55-0.03,0.87,0.23,0.97,0.78c1.46,8.4,4.31,16.1,8.54,23.11c1.15,1.89,2.26,3.7,3.34,5.43
	c0.27,0.43,0.33,0.89,0.19,1.38c-4.01,14.11-9.26,26.39-15.73,36.85C234.57,405.98,222.55,419.42,207.6,431.57z"/>
<path class="st0" d="M157.47,340.46c-8.51,9.48-15.6,20.29-21.25,32.42c-15.43,33.14-19.48,71.05-13.71,106.85
	c0.03,0.14-0.03,0.22-0.18,0.23c-19.31,1.07-37.94-0.96-55.88-6.11c-6.99-2-15.15-4.87-24.5-8.6c-0.38-0.15-0.55-0.44-0.52-0.85
	c1.57-17.57,6.39-33.79,14.46-48.66c8.18-15.07,21.3-28.24,34.99-38.62c20.31-15.39,42.77-27.47,66.2-37.85
	c0.24-0.11,0.51,0,0.62,0.24c0.02,0.05,0.03,0.1,0.04,0.15C157.77,339.96,157.68,340.23,157.47,340.46z"/>
<path class="st0" d="M368.82,354.06c30.18,24.52,68.28,37.04,107.34,38.98c6.36,0.31,12.99,0.44,19.89,0.39
	c18.22-0.15,36.14-2.72,53.75-7.71c0.34-0.09,0.63-0.01,0.88,0.24c13.54,13.91,23.33,29.51,29.36,46.78
	c3.36,9.62,5.71,20.16,7.06,31.62c0.02,0.14-0.06,0.28-0.2,0.33c-14.64,5.65-30.11,9.82-45.74,10.49
	c-26.55,1.14-53.49-6.72-77.87-16.68c-20.43-8.35-39.97-20.41-55.45-36.03c-15.39-15.54-28.19-33.87-36.17-54.54
	c-1.67-4.33-2.95-8.9-3.84-13.71c-0.03-0.17,0.08-0.33,0.25-0.37c0.01,0,0.02,0,0.03,0C368.38,353.83,368.62,353.9,368.82,354.06z"
	/>
<path class="st0" d="M245.4,494.84c-2.39-34.19,4.68-65.29,21.19-93.28c3.87-6.57,7.38-13.5,10.53-20.8
	c1.39-3.23,2.41-6.36,3.04-9.4c0.06-0.3,0.36-0.5,0.67-0.44c0.06,0.01,0.12,0.03,0.17,0.07c6.27,3.78,13.16,6.27,20.67,7.48
	c0.27,0.05,0.45,0.29,0.4,0.56c0,0,0,0.01,0,0.01c-1.77,8.97-2.97,18.29-3.58,27.97c-3.42,54.53,31.16,102.54,69.64,137.65
	c1.07,0.97,1.98,2.08,2.75,3.31c0.17,0.29,0.21,0.59,0.1,0.91c-3.52,10.27-8.09,20.17-13.72,29.72
	c-8.99,15.23-21.67,28.71-35.71,39.02c-2.34,1.71-4.75,3.48-7.23,5.29c-0.22,0.16-0.51,0.16-0.73,0.01
	c-19.33-13.61-36.22-30.79-46.87-51.63C254.38,547.14,247.27,521.66,245.4,494.84z"/>
<path class="st0" d="M361.07,502.95c-21.08-26.68-35.22-59.06-35.17-92.84c0.01-8.43,0.09-17.45,0.24-27.05
	c0.01-1.23-0.11-2.44-0.38-3.64c-0.08-0.36,0.15-0.72,0.52-0.8c0.01,0,0.02,0,0.03-0.01c6.58-1.05,12.98-3.17,19.2-6.36
	c0.31-0.16,0.69-0.03,0.85,0.28c0.02,0.04,0.03,0.07,0.04,0.11c2.21,7.81,5.03,14.74,8.48,20.78c11.1,19.45,24.9,36.05,41.39,49.8
	c20.39,17.01,42.87,29.71,68.15,36.7c4.88,1.35,9.98,2.69,15.3,4.02c0.41,0.11,0.67,0.36,0.77,0.77c1.45,5.7,2.69,11.08,3.71,16.14
	c3.64,18.14,3.25,36.39-1.16,54.75c-1.8,7.47-3.98,14.73-6.54,21.78c-0.11,0.31-0.34,0.45-0.67,0.41
	c-21.14-2.46-42.1-7.82-59.06-19.76c-5.23-3.69-10.61-8.04-16.12-13.07C385.41,531.06,372.22,517.06,361.07,502.95z"/>
<path class="st0" d="M230.73,548.69c-15.13,11.13-32.19,19.93-50.57,24.23c-9.85,2.3-19.17,3.89-27.95,4.76
	c-0.35,0.03-0.58-0.11-0.7-0.44c-8.91-24.38-12.59-48.87-7.75-74.43c1.15-6.13,2.41-12.23,3.76-18.31c0.08-0.38,0.31-0.6,0.7-0.67
	c24.91-4.67,47.15-14.47,66.72-29.38c4.15-3.17,8.09-6.42,11.8-9.75c0.72-0.65,0.93-0.51,0.63,0.41c-1.47,4.59-2.54,9.85-3.2,15.78
	c-3.24,28.93-0.1,57.83,8.73,85.61c0.13,0.43,0.04,0.81-0.27,1.14C232.23,548.05,231.32,548.26,230.73,548.69z"/>
</svg>
